<?xml version="1.0" encoding="UTF-8"?>
<svg width="752pt" height="752pt" version="1.1" viewBox="0 0 752 752" xmlns="http://www.w3.org/2000/svg">
 <g fill="#007335">
  <path d="m382.35 520.68c-31.965 0-62.621-12.699-85.227-35.301-22.602-22.602-35.301-53.258-35.301-85.227 0-31.965 12.699-62.621 35.301-85.223 22.605-22.605 53.262-35.301 85.227-35.301s62.621 12.695 85.227 35.301c22.602 22.602 35.301 53.258 35.301 85.223-0.039062 31.957-12.75 62.59-35.344 85.184-22.594 22.598-53.23 35.309-85.184 35.344zm0-217.38v0.003906c-25.688 0-50.32 10.203-68.48 28.363-18.164 18.164-28.367 42.797-28.367 68.48 0 25.688 10.203 50.32 28.367 68.484 18.16 18.16 42.793 28.363 68.48 28.363 25.684 0 50.32-10.203 68.48-28.363 18.164-18.164 28.367-42.797 28.367-68.484-0.027343-25.676-10.238-50.297-28.395-68.453s-42.777-28.367-68.453-28.391z"/>
  <path d="m382.35 411.33c5.3633-0.015625 9.9688-3.8281 10.988-9.0938l10.512-54.652c0.089844-0.75391 0.089844-1.5195 0-2.2734-0.027344-5.2656-3.7422-9.7891-8.9023-10.844h-2.1328c-5.3477 0.011719-9.9492 3.7969-10.984 9.0469l-10.562 54.508c-0.070313 0.72266-0.070313 1.4531 0 2.1797-0.027344 0.25-0.027344 0.50391 0 0.75781-0.046875 0.46875-0.046875 0.94531 0 1.418v0.56641c0 0.47266 0.28516 0.99609 0.47266 1.5156l0.23828 0.37891v0.003906c0.22266 0.50391 0.47656 0.99219 0.75781 1.4688 0 0 0.23828 0.23828 0.28516 0.37891 0.32031 0.42969 0.66797 0.83984 1.0391 1.2305 0.14062 0.11328 0.26562 0.23828 0.37891 0.37891 0.50391 0.31641 1.0234 0.60156 1.5625 0.85156l0.42578 0.28516c0.47656 0.29688 0.96484 0.5625 1.4688 0.80469h0.42578c0.53906 0.21484 1.0938 0.39062 1.6602 0.51953h0.51953c0.60156 0.23828 1.2188 0.42969 1.8477 0.57031z"/>
  <path d="m392.53 331.91c0.55469-0.023437 0.99219-0.48438 0.99219-1.0391 0.16797-5.9062-4.1797-10.969-10.039-11.699-3.1641-0.29688-6.3086 0.76953-8.6406 2.9297-2.332 2.1602-3.6328 5.2109-3.5781 8.3906v49.297c0.078125 0.28906 0.33984 0.48828 0.64062 0.48828 0.29688 0 0.55859-0.19922 0.63672-0.48828l7.0117-36.938c1.2852-6.2031 6.6445-10.723 12.977-10.941z"/>
  <path d="m428.09 347.82c-2.9531-2.6172-7.4688-2.3398-10.086 0.61328-2.6172 2.957-2.3398 7.4727 0.61719 10.09 10.816 9.3984 17.566 22.629 18.828 36.906 1.2656 14.273-3.0586 28.484-12.055 39.637-9 11.156-21.973 18.387-36.191 20.172-14.219 1.7852-28.578-2.0117-40.055-10.594-11.477-8.5859-19.18-21.285-21.484-35.43-2.3047-14.145 0.96484-28.633 9.1211-40.414 0.84375 3.0234 3.5859 5.1289 6.7266 5.1602 0.40625 0.046875 0.82031 0.046875 1.2305 0 3.8516-0.67578 6.4336-4.3359 5.7773-8.1914l-2.3203-13.688v-0.56641-0.003906c-0.22266-0.57422-0.49219-1.1289-0.80469-1.6562-0.31641-0.49219-0.69922-0.94141-1.1367-1.3242h-0.28516c-0.95703-0.8125-2.1211-1.3398-3.3633-1.5156l-13.969-2.7461c-3.9258-0.52344-7.5273 2.2305-8.0508 6.1562-0.52344 3.9219 2.2305 7.5273 6.1562 8.0508-10.883 14.512-15.664 32.703-13.32 50.691s11.625 34.348 25.863 45.586c14.238 11.238 32.305 16.469 50.344 14.574 18.043-1.8984 34.625-10.77 46.215-24.727 11.59-13.957 17.266-31.887 15.816-49.969s-9.9102-34.883-23.574-46.812z"/>
  <path d="m231.32 314.86c-2.8477 0.074219-5.1172 2.4062-5.1172 5.2539v26.523c-0.21875 1.9648-1.8789 3.4531-3.8594 3.4531-1.9805 0-3.6406-1.4883-3.8594-3.4531v-27.469c0-2.4141-1.9414-4.3789-4.3555-4.4062-2.4336 0-4.4062 1.9727-4.4062 4.4062v27.469c-0.21875 1.9648-1.8789 3.4531-3.8594 3.4531-1.9805 0-3.6406-1.4883-3.8594-3.4531l0.28516-26.617c0-1.375-0.55078-2.6953-1.5312-3.668-0.97656-0.96875-2.3008-1.5078-3.6797-1.4922-2.7969-0.003906-5.0859 2.2227-5.1602 5.0195l-1.3242 41.105h-0.003906c-0.14844 4.2695 1.1523 8.4648 3.6875 11.906 2.5352 3.4375 6.1602 5.918 10.285 7.0391 1.5195 0.47266 2.5312 1.9102 2.4609 3.5039l-3.0781 105.32v0.61719-0.003906c0.13672 2.9453 1.5508 5.6836 3.8711 7.5039 2.3164 1.8164 5.3125 2.5391 8.207 1.9688 5.1016-1.0039 8.6914-5.6016 8.4297-10.797l-3.0312-104.8c-0.074219-1.5898 0.9375-3.0312 2.4609-3.5039 4.1289-1.0625 7.7773-3.4883 10.355-6.8828 2.5781-3.3945 3.9336-7.5625 3.8516-11.824l-1.0898-41.059c-0.074218-2.8828-2.4648-5.168-5.3516-5.1133z"/>
  <path d="m561.08 318.32c-0.082031-1.9805-1.5859-3.6055-3.5547-3.8359h-0.47266c-25.242 0-27.371 64.785-27.371 64.785-1.043 27.371 5.1133 36.039 12.027 38.312 2.25 0.73047 3.7109 2.8984 3.5508 5.2578l-4.7344 65.875v0.61719-0.003906c0.023437 3.3242 1.6641 6.4258 4.4023 8.3125 2.7344 1.8867 6.2188 2.3203 9.332 1.1602 3.9414-1.4766 6.5352-5.2617 6.4883-9.4727v-84.91l0.28516-43.332c0.046875-14.113 0.42578-28.512 0.046875-42.766z"/>
 </g>
</svg>
